# xmcd CD database file
#
# Track frame offsets:
#	182
#	2077
#	12665
#	33267
#	55367
#	70182
#	90375
#	107195
#	117017
#	156125
#	183340
#	204425
#	226035
#	239127
#	266195
#
# Disc length: 3821 seconds
#
# Revision: 2
# Processed by: cddbd v1.5.2PL0 Copyright (c) Steve Scherf et al.
# Submitted via: CDex 1.72
#
DISCID=c50eeb0f
DTITLE=Chapman, Marshall (USA-95-It's About Time-cty) - It's About Time
DYEAR=1900
DGENRE=Country
TTITLE0=Intro
TTITLE1=Jailhouse Rock
TTITLE2=Don't Want Nothing (If I Can't  Have You)
TTITLE3=Real Smart Man
TTITLE4=Happy Childhood
TTITLE5=Bad Debt
TTITLE6=Good-Bye Forever
TTITLE7=Alabama Bad
TTITLE8=Bizzy Bizzy Bizzy
TTITLE9=Late Date With the Blues
TTITLE10=Booze in Your Blood
TTITLE11=Beyond My Wildest Dreams
TTITLE12=Girl in a Bubble
TTITLE13=Betty's Bein' Bad
TTITLE14=Good-Bye Little Rock and Roller
EXTD=
EXTT0=
EXTT1=
EXTT2=
EXTT3=
EXTT4=
EXTT5=
EXTT6=
EXTT7=
EXTT8=
EXTT9=
EXTT10=
EXTT11=
EXTT12=
EXTT13=
EXTT14=
PLAYORDER=
